<svg width="107" height="103" viewBox="0 0 107 103" fill="none" xmlns="http://www.w3.org/2000/svg">
<path d="M98.9999 52.0998C98.9999 48.9998 98.6999 45.7998 98.1999 42.7998H54.8999V60.4998H79.6999C78.6999 66.1998 75.3999 71.1998 70.4999 74.3998L85.2999 85.8998C93.9999 77.7998 98.9999 65.9998 98.9999 52.0998Z" fill="#4280EF"/>
<path d="M54.8999 96.8999C67.2999 96.8999 77.6999 92.7999 85.2999 85.7999L70.4999 74.3999C66.3999 77.1999 61.0999 78.7999 54.8999 78.7999C42.8999 78.7999 32.7999 70.6999 29.0999 59.8999L13.8999 71.5999C21.6999 87.0999 37.4999 96.8999 54.8999 96.8999Z" fill="#34A353"/>
<path d="M29.0999 59.7999C27.1999 54.0999 27.1999 47.8999 29.0999 42.1999L13.8999 30.3999C7.3999 43.3999 7.3999 58.6999 13.8999 71.5999L29.0999 59.7999Z" fill="#F6B704"/>
<path d="M54.8999 23.2999C61.3999 23.1999 67.7999 25.6999 72.4999 30.1999L85.5999 16.9999C77.2999 9.19989 66.2999 4.99989 54.8999 5.09989C37.4999 5.09989 21.6999 14.8999 13.8999 30.3999L29.0999 42.1999C32.7999 31.2999 42.8999 23.2999 54.8999 23.2999Z" fill="#E54335"/>
</svg>
