<svg width="12" height="11" viewBox="0 0 12 11" fill="none" xmlns="http://www.w3.org/2000/svg">
<rect width="11.7126" height="11" rx="2" fill="#71747A"/>
<path d="M5.20982 4.99693C5.22631 5.12016 5.23682 5.24528 5.24106 5.37198C5.24143 5.38296 5.24175 5.39394 5.24202 5.40494C5.2428 5.43649 5.2432 5.46814 5.2432 5.49988C5.2432 5.53162 5.2428 5.56327 5.24202 5.59482C5.24175 5.60581 5.24143 5.6168 5.24106 5.62777C5.23682 5.75448 5.22631 5.8796 5.20982 6.00282L5.12588 6.08677L4.78207 6.43058V6.08677L4.78207 5.86489L4.78207 5.74295L4.53899 5.49988L4.53899 5.49988L4.78207 5.2568L4.78207 5.13486L4.78207 4.91299V4.56918L5.12588 4.91299L5.20982 4.99693Z" fill="black" stroke="black" stroke-width="8"/>
<rect x="6.71265" y="1" width="4" height="9" rx="1" fill="black"/>
</svg>
